<svg width="22" height="24" viewBox="0 0 22 24" fill="none" xmlns="http://www.w3.org/2000/svg">
<path d="M10.9999 0C9.9443 0 9.07992 0.864375 9.07992 1.92C9.07992 2.1675 9.12867 2.4075 9.21492 2.625C6.51492 3.32625 4.75992 5.67187 4.75992 8.64C4.75992 12.3994 3.83742 14.1112 2.95992 15.075C2.52117 15.5569 2.08805 15.8494 1.71492 16.125C1.52742 16.2619 1.3568 16.3988 1.20492 16.575C1.05305 16.7512 0.919922 17.0025 0.919922 17.28C0.919922 17.94 1.32492 18.5006 1.89492 18.87C2.46492 19.2394 3.21305 19.4775 4.11492 19.665C5.28492 19.9069 6.72867 20.0344 8.31492 20.1C8.19492 20.4187 8.11992 20.7619 8.11992 21.12C8.11992 22.7044 9.41555 24 10.9999 24C12.5843 24 13.8799 22.7044 13.8799 21.12C13.8799 20.76 13.8068 20.4169 13.6849 20.1C15.2712 20.0344 16.7149 19.9069 17.8849 19.665C18.7868 19.4775 19.5349 19.2394 20.1049 18.87C20.6749 18.5006 21.0799 17.94 21.0799 17.28C21.0799 17.0025 20.9468 16.7512 20.7949 16.575C20.643 16.3988 20.4724 16.2619 20.2849 16.125C19.9118 15.8494 19.4787 15.5569 19.0399 15.075C18.1624 14.1112 17.2399 12.3994 17.2399 8.64C17.2399 5.67375 15.4812 3.33 12.7849 2.625C12.8712 2.4075 12.9199 2.1675 12.9199 1.92C12.9199 0.864375 12.0555 0 10.9999 0ZM10.9999 0.96C11.5362 0.96 11.9599 1.38375 11.9599 1.92C11.9599 2.45625 11.5362 2.88 10.9999 2.88C10.4637 2.88 10.0399 2.45625 10.0399 1.92C10.0399 1.38375 10.4637 0.96 10.9999 0.96ZM12.1249 3.45C14.6843 3.90563 16.2799 5.88375 16.2799 8.64C16.2799 12.5606 17.2774 14.5744 18.3199 15.72C18.8412 16.2919 19.368 16.65 19.7149 16.905C19.8874 17.0325 20.0168 17.1394 20.0749 17.205C20.133 17.2706 20.1199 17.265 20.1199 17.28C20.1199 17.58 19.9812 17.7994 19.5799 18.06C19.1787 18.3206 18.5262 18.5625 17.6899 18.735C16.0174 19.0819 13.6362 19.2 10.9999 19.2C8.36367 19.2 5.98242 19.0819 4.30992 18.735C3.47367 18.5625 2.82117 18.3206 2.41992 18.06C2.01867 17.7994 1.87992 17.58 1.87992 17.28C1.87992 17.265 1.8668 17.2706 1.92492 17.205C1.98305 17.1394 2.11242 17.0325 2.28492 16.905C2.6318 16.65 3.15867 16.2919 3.67992 15.72C4.72242 14.5744 5.71992 12.5606 5.71992 8.64C5.71992 5.88562 7.31742 3.9225 9.87492 3.465C10.1937 3.69937 10.578 3.84 10.9999 3.84C11.4255 3.84 11.8062 3.68813 12.1249 3.45ZM9.34992 20.13C9.88805 20.1413 10.4355 20.16 10.9999 20.16C11.5643 20.16 12.1118 20.1413 12.6499 20.13C12.8205 20.4187 12.9199 20.76 12.9199 21.12C12.9199 22.1869 12.0668 23.04 10.9999 23.04C9.93305 23.04 9.07992 22.1869 9.07992 21.12C9.07992 20.7563 9.17555 20.4187 9.34992 20.13Z" fill="black"/>
</svg>
