<svg width="24" height="23" viewBox="0 0 24 23" fill="none" xmlns="http://www.w3.org/2000/svg">
<path d="M12.0002 0.949219C5.95898 0.949219 0.990234 5.20359 0.990234 10.5192C0.990234 13.6036 2.70023 16.3242 5.28023 18.0642C5.27648 18.1673 5.28023 18.3267 5.14523 18.8292C4.97836 19.4498 4.64836 20.3292 3.96023 21.3042L3.46523 21.9942L4.32023 22.0092C7.28461 22.0223 9.00211 20.0742 9.27024 19.7592C10.1459 19.9542 11.0571 20.0892 12.0002 20.0892C18.0396 20.0892 23.0102 15.8348 23.0102 10.5192C23.0102 5.20359 18.0396 0.949219 12.0002 0.949219ZM12.0002 1.84922C17.6234 1.84922 22.1102 5.76234 22.1102 10.5192C22.1102 15.2761 17.6234 19.1892 12.0002 19.1892C11.0384 19.1892 10.1046 19.073 9.22523 18.8592L8.95523 18.7992L8.77523 19.0242C8.77523 19.0242 7.38773 20.588 5.17523 20.9592C5.57461 20.243 5.87836 19.5773 6.01523 19.0692C6.20648 18.3586 6.21023 17.8692 6.21023 17.8692V17.6292L6.00023 17.4942C3.49148 15.9042 1.89023 13.3711 1.89023 10.5192C1.89023 5.76234 6.37523 1.84922 12.0002 1.84922Z" fill="black"/>
</svg>
