<svg width="28" height="24" viewBox="0 0 28 24" fill="none" xmlns="http://www.w3.org/2000/svg">
<path d="M23.3337 24C22.467 24 21.6892 23.7502 21.0003 23.2507C20.3114 22.7502 19.8337 22.1111 19.567 21.3333H12.667C11.2003 21.3333 9.94477 20.8111 8.90033 19.7667C7.85588 18.7222 7.33366 17.4667 7.33366 16C7.33366 14.5333 7.85588 13.2778 8.90033 12.2333C9.94477 11.1889 11.2003 10.6667 12.667 10.6667H15.3337C16.067 10.6667 16.695 10.4053 17.2177 9.88267C17.7394 9.36089 18.0003 8.73333 18.0003 8C18.0003 7.26667 17.7394 6.63867 17.2177 6.116C16.695 5.59422 16.067 5.33333 15.3337 5.33333H8.43366C8.14477 6.11111 7.66166 6.75022 6.98433 7.25067C6.3061 7.75022 5.53366 8 4.66699 8C3.55588 8 2.61144 7.61111 1.83366 6.83333C1.05588 6.05556 0.666992 5.11111 0.666992 4C0.666992 2.88889 1.05588 1.94444 1.83366 1.16667C2.61144 0.388889 3.55588 0 4.66699 0C5.53366 0 6.3061 0.249778 6.98433 0.749333C7.66166 1.24978 8.14477 1.88889 8.43366 2.66667H15.3337C16.8003 2.66667 18.0559 3.18889 19.1003 4.23333C20.1448 5.27778 20.667 6.53333 20.667 8C20.667 9.46667 20.1448 10.7222 19.1003 11.7667C18.0559 12.8111 16.8003 13.3333 15.3337 13.3333H12.667C11.9337 13.3333 11.3061 13.5942 10.7843 14.116C10.2617 14.6387 10.0003 15.2667 10.0003 16C10.0003 16.7333 10.2617 17.3613 10.7843 17.884C11.3061 18.4058 11.9337 18.6667 12.667 18.6667H19.567C19.8559 17.8889 20.3394 17.2498 21.0177 16.7493C21.695 16.2498 22.467 16 23.3337 16C24.4448 16 25.3892 16.3889 26.167 17.1667C26.9448 17.9444 27.3337 18.8889 27.3337 20C27.3337 21.1111 26.9448 22.0556 26.167 22.8333C25.3892 23.6111 24.4448 24 23.3337 24ZM4.66699 5.33333C5.04477 5.33333 5.36166 5.20578 5.61766 4.95067C5.87277 4.69467 6.00033 4.37778 6.00033 4C6.00033 3.62222 5.87277 3.30533 5.61766 3.04933C5.36166 2.79422 5.04477 2.66667 4.66699 2.66667C4.28921 2.66667 3.97233 2.79422 3.71633 3.04933C3.46121 3.30533 3.33366 3.62222 3.33366 4C3.33366 4.37778 3.46121 4.69467 3.71633 4.95067C3.97233 5.20578 4.28921 5.33333 4.66699 5.33333Z" fill="black"/>
</svg>
