<svg width="20" height="21" viewBox="0 0 20 21" fill="none" xmlns="http://www.w3.org/2000/svg">
<path d="M7.89062 0.75L7.77344 1.35938L7.32812 3.58594C6.61328 3.86719 5.96875 4.2627 5.38281 4.73438L3.20312 3.98438L2.61719 3.79688L2.3125 4.33594L0.8125 6.91406L0.507812 7.45312L0.953125 7.85156L2.64062 9.32812C2.5791 9.71191 2.5 10.0957 2.5 10.5C2.5 10.9043 2.5791 11.2881 2.64062 11.6719L0.953125 13.1484L0.507812 13.5469L0.8125 14.0859L2.3125 16.6641L2.61719 17.2031L3.20312 17.0156L5.38281 16.2656C5.96875 16.7373 6.61328 17.1328 7.32812 17.4141L7.77344 19.6406L7.89062 20.25H12.1094L12.2266 19.6406L12.6719 17.4141C13.3867 17.1328 14.0312 16.7373 14.6172 16.2656L16.7969 17.0156L17.3828 17.2031L17.6875 16.6641L19.1875 14.0859L19.4922 13.5469L19.0469 13.1484L17.3594 11.6719C17.4209 11.2881 17.5 10.9043 17.5 10.5C17.5 10.0957 17.4209 9.71191 17.3594 9.32812L19.0469 7.85156L19.4922 7.45312L19.1875 6.91406L17.6875 4.33594L17.3828 3.79688L16.7969 3.98438L14.6172 4.73438C14.0312 4.2627 13.3867 3.86719 12.6719 3.58594L12.2266 1.35938L12.1094 0.75H7.89062ZM9.10938 2.25H10.8906L11.2656 4.19531L11.3594 4.64062L11.7812 4.78125C12.6338 5.04785 13.4072 5.49902 14.0547 6.09375L14.3828 6.39844L14.8047 6.25781L16.7031 5.60156L17.5938 7.125L16.0938 8.46094L15.7422 8.74219L15.8594 9.1875C15.9561 9.61523 16 10.0518 16 10.5C16 10.9482 15.9561 11.3848 15.8594 11.8125L15.7656 12.2578L16.0938 12.5391L17.5938 13.875L16.7031 15.3984L14.8047 14.7422L14.3828 14.6016L14.0547 14.9062C13.4072 15.501 12.6338 15.9521 11.7812 16.2188L11.3594 16.3594L11.2656 16.8047L10.8906 18.75H9.10938L8.73438 16.8047L8.64062 16.3594L8.21875 16.2188C7.36621 15.9521 6.59277 15.501 5.94531 14.9062L5.61719 14.6016L5.19531 14.7422L3.29688 15.3984L2.40625 13.875L3.90625 12.5391L4.25781 12.2578L4.14062 11.8125C4.04395 11.3848 4 10.9482 4 10.5C4 10.0518 4.04395 9.61523 4.14062 9.1875L4.25781 8.74219L3.90625 8.46094L2.40625 7.125L3.29688 5.60156L5.19531 6.25781L5.61719 6.39844L5.94531 6.09375C6.59277 5.49902 7.36621 5.04785 8.21875 4.78125L8.64062 4.64062L8.73438 4.19531L9.10938 2.25ZM10 6.75C7.9375 6.75 6.25 8.4375 6.25 10.5C6.25 12.5625 7.9375 14.25 10 14.25C12.0625 14.25 13.75 12.5625 13.75 10.5C13.75 8.4375 12.0625 6.75 10 6.75ZM10 8.25C11.251 8.25 12.25 9.24902 12.25 10.5C12.25 11.751 11.251 12.75 10 12.75C8.74902 12.75 7.75 11.751 7.75 10.5C7.75 9.24902 8.74902 8.25 10 8.25Z" fill="#ACB4B9"/>
</svg>
