<svg width="14" height="14" viewBox="0 0 14 14" fill="none" xmlns="http://www.w3.org/2000/svg">
<path d="M6.33398 4.9987H7.66732V3.66536H6.33398M7.00065 12.332C4.06065 12.332 1.66732 9.9387 1.66732 6.9987C1.66732 4.0587 4.06065 1.66536 7.00065 1.66536C9.94065 1.66536 12.334 4.0587 12.334 6.9987C12.334 9.9387 9.94065 12.332 7.00065 12.332ZM7.00065 0.332031C6.12517 0.332031 5.25827 0.50447 4.44943 0.839501C3.64059 1.17453 2.90566 1.6656 2.28661 2.28465C1.03636 3.5349 0.333984 5.23059 0.333984 6.9987C0.333984 8.76681 1.03636 10.4625 2.28661 11.7127C2.90566 12.3318 3.64059 12.8229 4.44943 13.1579C5.25827 13.4929 6.12517 13.6654 7.00065 13.6654C8.76876 13.6654 10.4645 12.963 11.7147 11.7127C12.9649 10.4625 13.6673 8.76681 13.6673 6.9987C13.6673 6.12322 13.4949 5.25631 13.1598 4.44747C12.8248 3.63864 12.3338 2.90371 11.7147 2.28465C11.0956 1.6656 10.3607 1.17453 9.55187 0.839501C8.74304 0.50447 7.87613 0.332031 7.00065 0.332031ZM6.33398 10.332H7.66732V6.33203H6.33398V10.332Z" fill="#304351"/>
</svg>
